<svg width="48" height="48" viewBox="0 0 48 48" fill="none" xmlns="http://www.w3.org/2000/svg">
<g clip-path="url(#clip0_1_32)">
<path d="M0.992676 0.975067H47.7665V47.515H0.992676V0.975067Z" fill="url(#paint0_linear_1_32)"/>
<path d="M31.1672 16.7882C31.2858 21.1825 28.8142 25.9213 25.247 25.9213C22.8656 25.9213 20.6646 22.8864 19.1229 20.1016C17.7045 18.6809 17.3677 17.7275 17.3677 16.5333C17.3677 12.9367 20.2614 10.0198 23.8286 10.0198C27.3958 10.0198 31.0676 13.0075 31.1672 16.7882Z" fill="#17171B"/>
<path d="M40.1864 13.7445C35.1297 11.2901 31.3964 12.7202 30.163 13.7445V14.8678C30.7086 14.8159 33.6498 15.4106 35.1061 16.8974C37.1648 19.0025 36.8423 22.821 36.4391 24.303L38.014 23.1655L37.7198 22.028L38.5594 22.7738L42.1126 20.2108L42.5583 19.8899L41.8041 18.0868L43.4454 19.248L43.8914 18.927L45.6655 17.6479C44.9302 16.9541 42.8097 15.1935 40.1864 13.7445Z" fill="#17171B"/>
<path d="M32.8476 28.5935L15.4999 28.924C12.0513 29.3393 10.2487 33.2945 8.88724 35.1969L-0.125738 48.9555L-8.67859 43.2348L-12.8198 49.1349C-9.51823 51.759 -5.7897 54.6571 -3.93016 55.8417C-0.244333 58.1971 3.35612 56.8235 4.69857 55.8417L13.8396 45.1322V57.187L34.9823 57.607V45.1275L47.0644 68.9304L54.1989 65.8764C49.9581 54.4495 45.0389 43.82 39.8019 32.8226C38.0988 29.2544 34.4556 28.5179 32.8476 28.5935Z" fill="#FF85D2"/>
<path d="M34.9191 44.2818V38.5234" stroke="white" stroke-width="0.298398" stroke-linecap="round"/>
<path d="M13.8481 44.2818V38.5234" stroke="white" stroke-width="0.298398" stroke-linecap="round"/>
<path d="M27.2912 44.858C27.2058 43.8007 27.3054 41.7334 28.3964 41.927C29.758 42.1676 31.5179 44.858 33.0263 43.8528C33.7806 43.2485 32.9599 40.7186 33.5434 39.9965" stroke="white" stroke-width="0.298398" stroke-linecap="round"/>
<path d="M33.7624 32.5381C33.677 31.4807 33.7766 29.4134 34.8676 29.607C36.0772 29.8241 37.6095 31.981 38.9947 31.7358" stroke="white" stroke-width="0.298398" stroke-linecap="round"/>
<path d="M40.9687 46.2694C40.8834 45.2121 40.983 43.1448 42.074 43.3384C43.0845 43.5175 44.3226 45.0517 45.5084 45.4103" stroke="white" stroke-width="0.298398" stroke-linecap="round"/>
<path d="M12.171 38.7081C12.0857 37.6507 12.19 35.5834 13.2763 35.777C14.6378 36.0176 16.3976 38.7081 17.9061 37.7026C18.6604 37.0985 17.8397 34.5686 18.4232 33.8465" stroke="white" stroke-width="0.298398" stroke-linecap="round"/>
<path d="M18.499 19.6341L17.7874 18.388C18.6603 18.1143 20.6147 14.8103 20.757 13.4792C21.1887 14.8669 23.5795 17.7036 27.9911 19.2848L27.1183 20.6725C28.3849 19.6294 30.0498 20.3185 30.0926 21.5929C30.0166 23.7782 28.2425 23.5894 27.4455 23.0608V29.3856C27.4455 29.3856 27.0187 30.5419 26.2074 30.9431C23.4751 32.4489 21.663 30.3578 20.9989 29.3856V26.1571C20.1925 26.1571 18.499 26.2563 17.7874 24.8449C17.0616 23.4006 17.8111 20.866 18.499 19.6341Z" fill="#FECB4B"/>
<path d="M20.9943 27.7948L23.9639 25.8454C23.9639 25.8454 23.0436 26.0011 22.4554 26.0625C21.8814 26.1191 20.9943 26.1475 20.9943 26.1475V27.7948Z" fill="#17171B"/>
<path d="M21.0916 18.0629C20.8592 19.2665 21.7842 19.9698 21.7842 19.9698L20.6789 21.9097H21.9834" stroke="#17171B" stroke-width="0.298398" stroke-linecap="round"/>
<path d="M23.3203 17.6842C23.7946 17.604 24.2785 17.6134 24.6106 17.7031" stroke="#17171B" stroke-width="0.298398" stroke-linecap="round"/>
<path d="M18.9959 17.7892C19.4703 17.7089 19.9541 17.7184 20.2862 17.808" stroke="#17171B" stroke-width="0.298398" stroke-linecap="round"/>
<path d="M22.0597 23.8397C22.4866 23.6131 22.8614 23.3158 23.0654 23.0373" stroke="#17171B" stroke-width="0.298398" stroke-linecap="round"/>
<path d="M27.2676 22.0791L28.8427 20.7952" stroke="#17171B" stroke-width="0.298398" stroke-linecap="round"/>
<path d="M28.3892 21.1919L29.1766 21.9282" stroke="#17171B" stroke-width="0.298398" stroke-linecap="round"/>
<path d="M28.8343 19.46L30.5563 18.0629" stroke="#17171B" stroke-width="0.198932" stroke-linecap="round"/>
<path d="M19.7132 20.0598C19.9071 20.0598 20.0643 19.9034 20.0643 19.7105C20.0643 19.5176 19.9071 19.3612 19.7132 19.3612C19.5193 19.3612 19.3622 19.5176 19.3622 19.7105C19.3622 19.9034 19.5193 20.0598 19.7132 20.0598Z" fill="#17171B"/>
<path d="M23.7916 20.0598C23.9855 20.0598 24.1426 19.9034 24.1426 19.7105C24.1426 19.5176 23.9855 19.3612 23.7916 19.3612C23.5977 19.3612 23.4406 19.5176 23.4406 19.7105C23.4406 19.9034 23.5977 20.0598 23.7916 20.0598Z" fill="#17171B"/>
</g>
<defs>
<linearGradient id="paint0_linear_1_32" x1="56.5366" y1="55.4268" x2="2.08553" y2="0.70213" gradientUnits="userSpaceOnUse">
<stop stop-color="#930FFC"/>
<stop offset="1" stop-color="#8F5AFF"/>
</linearGradient>
<clipPath id="clip0_1_32">
<rect x="0.989929" y="0.975281" width="46.5399" height="46.5399" rx="13.6882" fill="white"/>
</clipPath>
</defs>
</svg>
