<svg width="21" height="21" viewBox="0 0 21 21" fill="none" xmlns="http://www.w3.org/2000/svg">
<g clip-path="url(#clip0_1_85)">
<path fill-rule="evenodd" clip-rule="evenodd" d="M1.40381 2.94641L0.431946 3.91828L3.11484 6.60117L6.30419 1.04375L5.11331 0.359343L2.81369 4.36999L1.40381 2.94641Z" fill="#A6A6A6"/>
<path fill-rule="evenodd" clip-rule="evenodd" d="M1.40399 9.79059L0.432129 10.7625L3.11502 13.4453L6.30437 7.88793L5.1135 7.20352L2.81388 11.2142L1.40399 9.79059Z" fill="#A6A6A6"/>
<path fill-rule="evenodd" clip-rule="evenodd" d="M1.40399 16.6347L0.432129 17.6066L3.11502 20.2895L6.30437 14.732L5.1135 14.0476L2.81388 18.0583L1.40399 16.6347Z" fill="#A6A6A6"/>
<path fill-rule="evenodd" clip-rule="evenodd" d="M7.76013 4.80541H20.0795V2.06777H7.76013V4.80541Z" fill="#A6A6A6"/>
<path fill-rule="evenodd" clip-rule="evenodd" d="M7.76013 11.6495H20.0795V8.91188H7.76013V11.6495Z" fill="#A6A6A6"/>
<path fill-rule="evenodd" clip-rule="evenodd" d="M7.76013 18.4936H20.0795V15.756H7.76013V18.4936Z" fill="#A6A6A6"/>
</g>
<defs>
<clipPath id="clip0_1_85">
<rect width="19.6474" height="19.9362" fill="white" transform="translate(0.432373 0.359314)"/>
</clipPath>
</defs>
</svg>
