<svg width="22" height="27" viewBox="0 0 22 27" fill="none" xmlns="http://www.w3.org/2000/svg">
<g clip-path="url(#clip0_1_94)">
<g clip-path="url(#clip1_1_94)">
<path fill-rule="evenodd" clip-rule="evenodd" d="M0.989319 6.14429H21.5216V3.40665H0.989319V6.14429Z" fill="#A6A6A6"/>
<path fill-rule="evenodd" clip-rule="evenodd" d="M7.14904 1.35408C5.26007 1.35408 3.72699 2.88716 3.72699 4.77613C3.72699 6.66511 5.26007 8.19819 7.14904 8.19819C9.03802 8.19819 10.5711 6.66511 10.5711 4.77613C10.5711 2.88716 9.03802 1.35408 7.14904 1.35408Z" fill="#F8FAFD"/>
<path d="M9.16835 2.75715C8.90827 2.49708 8.60713 2.29175 8.26493 2.14118C7.90904 1.99061 7.53945 1.92217 7.15618 1.92217C6.75923 1.92217 6.38964 1.99061 6.03375 2.14118C5.69155 2.29175 5.3904 2.49708 5.13033 2.75715C4.87025 3.01723 4.66493 3.31837 4.51436 3.66057C4.36379 4.01647 4.29535 4.38605 4.29535 4.78301C4.29535 5.16628 4.36379 5.53586 4.51436 5.89175C4.66493 6.23396 4.87025 6.5351 5.13033 6.79517C5.3904 7.05525 5.69155 7.26057 6.03375 7.41114C6.38964 7.56171 6.75923 7.63016 7.15618 7.63016C7.53945 7.63016 7.90904 7.56171 8.26493 7.41114C8.60713 7.26057 8.90827 7.05525 9.16835 6.79517C9.42843 6.5351 9.63375 6.23396 9.78432 5.89175C9.93489 5.53586 10.0033 5.16628 10.0033 4.78301C10.0033 4.38605 9.93489 4.01647 9.78432 3.66057C9.63375 3.31837 9.42843 3.01723 9.16835 2.75715Z" fill="#A6A6A6"/>
<path d="M8.70285 1.10077C8.21007 0.895448 7.68992 0.785942 7.15608 0.785942C6.60855 0.785942 6.0884 0.895448 5.59562 1.10077C5.11653 1.30609 4.6922 1.59355 4.32262 1.94944C3.96672 2.31902 3.67927 2.74336 3.47395 3.22244C3.26862 3.71522 3.15912 4.23537 3.15912 4.7829C3.15912 5.31674 3.26862 5.83689 3.47395 6.32967C3.67927 6.80876 3.96672 7.23309 4.32262 7.60267C4.6922 7.95857 5.11653 8.24602 5.59562 8.45134C6.0884 8.65666 6.60855 8.76617 7.15608 8.76617C7.68992 8.76617 8.21007 8.65666 8.70285 8.45134C9.18193 8.24602 9.60627 7.95857 9.97585 7.60267C10.3317 7.23309 10.6192 6.80876 10.8245 6.32967C11.0298 5.83689 11.1393 5.31674 11.1393 4.7829C11.1393 4.23537 11.0298 3.71522 10.8245 3.22244C10.6192 2.74336 10.3317 2.31902 9.97585 1.94944C9.60627 1.59355 9.18193 1.30609 8.70285 1.10077Z" fill="#A6A6A6"/>
</g>
<g clip-path="url(#clip2_1_94)">
<path fill-rule="evenodd" clip-rule="evenodd" d="M0.989319 23.939H21.5216V21.2013H0.989319V23.939Z" fill="#A6A6A6"/>
<path fill-rule="evenodd" clip-rule="evenodd" d="M7.14904 19.1487C5.26007 19.1487 3.72699 20.6818 3.72699 22.5708C3.72699 24.4598 5.26007 25.9928 7.14904 25.9928C9.03802 25.9928 10.5711 24.4598 10.5711 22.5708C10.5711 20.6818 9.03802 19.1487 7.14904 19.1487Z" fill="#F8FAFD"/>
<path d="M4.32262 19.7441C3.96672 20.1137 3.67927 20.538 3.47395 21.0171C3.26862 21.5099 3.15912 22.03 3.15912 22.5776C3.15912 23.1114 3.26862 23.6315 3.47395 24.1243C3.67927 24.6034 3.96672 25.0277 4.32262 25.3973C4.6922 25.7532 5.11653 26.0407 5.59562 26.246C6.0884 26.4513 6.60855 26.5608 7.15608 26.5608C7.68992 26.5608 8.21007 26.4513 8.70285 26.246C9.18193 26.0407 9.60627 25.7532 9.97585 25.3973C10.3317 25.0277 10.6192 24.6034 10.8245 24.1243C11.0298 23.6315 11.1393 23.1114 11.1393 22.5776C11.1393 22.03 11.0298 21.5099 10.8245 21.0171C10.6192 20.538 10.3317 20.1137 9.97585 19.7441C9.60627 19.3882 9.18193 19.1007 8.70285 18.8954C8.21007 18.6901 7.68992 18.5806 7.15608 18.5806C6.60855 18.5806 6.0884 18.6901 5.59562 18.8954C5.11653 19.1007 4.6922 19.3882 4.32262 19.7441Z" fill="#A6A6A6"/>
<path d="M8.26493 19.9358C7.90904 19.7853 7.53945 19.7168 7.15618 19.7168C6.75923 19.7168 6.38964 19.7853 6.03375 19.9358C5.69155 20.0864 5.3904 20.2917 5.13033 20.5518C4.87025 20.8119 4.66493 21.113 4.51436 21.4552C4.36379 21.8111 4.29535 22.1807 4.29535 22.5777C4.29535 22.9609 4.36379 23.3305 4.51436 23.6864C4.66493 24.0286 4.87025 24.3298 5.13033 24.5898C5.3904 24.8499 5.69155 25.0552 6.03375 25.2058C6.38964 25.3564 6.75923 25.4248 7.15618 25.4248C7.53945 25.4248 7.90904 25.3564 8.26493 25.2058C8.60713 25.0552 8.90827 24.8499 9.16835 24.5898C9.42843 24.3298 9.63375 24.0286 9.78432 23.6864C9.93489 23.3305 10.0033 22.9609 10.0033 22.5777C10.0033 22.1807 9.93489 21.8111 9.78432 21.4552C9.63375 21.113 9.42843 20.8119 9.16835 20.5518C8.90827 20.2917 8.60713 20.0864 8.26493 19.9358Z" fill="#A6A6A6"/>
</g>
<g clip-path="url(#clip3_1_94)">
<path fill-rule="evenodd" clip-rule="evenodd" d="M0.989319 12.3041V15.0417H21.5216V12.3041H0.989319Z" fill="#A6A6A6"/>
<path fill-rule="evenodd" clip-rule="evenodd" d="M15.3619 17.0956C17.2509 17.0956 18.784 15.5626 18.784 13.6736C18.784 11.7846 17.2509 10.2515 15.3619 10.2515C13.473 10.2515 11.9399 11.7846 11.9399 13.6736C11.9399 15.5626 13.473 17.0956 15.3619 17.0956Z" fill="#F8FAFD"/>
<path d="M15.3691 16.5277C15.7524 16.5277 16.122 16.4593 16.4779 16.3087C16.8201 16.1581 17.1212 15.9528 17.3813 15.6927C17.6414 15.4327 17.8467 15.1315 17.9973 14.7893C18.1478 14.4334 18.2163 14.0638 18.2163 13.6806C18.2163 13.2836 18.1478 12.914 17.9973 12.5581C17.8467 12.2159 17.6414 11.9148 17.3813 11.6547C17.1212 11.3946 16.8201 11.1893 16.4779 11.0387C16.122 10.8882 15.7524 10.8197 15.3691 10.8197C14.9722 10.8197 14.6026 10.8882 14.2467 11.0387C13.9045 11.1893 13.6034 11.3946 13.3433 11.6547C13.0832 11.9148 12.8779 12.2159 12.7273 12.5581C12.5767 12.914 12.5083 13.2836 12.5083 13.6806C12.5083 14.0638 12.5767 14.4334 12.7273 14.7893C12.8779 15.1315 13.0832 15.4327 13.3433 15.6927C13.6034 15.9528 13.9045 16.1581 14.2467 16.3087C14.6026 16.4593 14.9722 16.5277 15.3691 16.5277Z" fill="#A6A6A6"/>
<path d="M15.369 9.68351C14.8215 9.68351 14.3013 9.79302 13.8086 9.99834C13.3295 10.2037 12.9052 10.4911 12.5356 10.847C12.1797 11.2166 11.8922 11.6409 11.6869 12.12C11.4816 12.6128 11.3721 13.1329 11.3721 13.6805C11.3721 14.2143 11.4816 14.7345 11.6869 15.2272C11.8922 15.7063 12.1797 16.1307 12.5356 16.5002C12.9052 16.8561 13.3295 17.1436 13.8086 17.3489C14.3013 17.5542 14.8215 17.6637 15.369 17.6637C15.9029 17.6637 16.423 17.5542 16.9158 17.3489C17.3949 17.1436 17.8192 16.8561 18.1888 16.5002C18.5447 16.1307 18.8321 15.7063 19.0375 15.2272C19.2428 14.7345 19.3523 14.2143 19.3523 13.6805C19.3523 13.1329 19.2428 12.6128 19.0375 12.12C18.8321 11.6409 18.5447 11.2166 18.1888 10.847C17.8192 10.4911 17.3949 10.2037 16.9158 9.99834C16.423 9.79302 15.9029 9.68351 15.369 9.68351Z" fill="#A6A6A6"/>
</g>
</g>
<defs>
<clipPath id="clip0_1_94">
<rect width="20.5323" height="25.7749" fill="white" transform="translate(0.989929 0.786011)"/>
</clipPath>
<clipPath id="clip1_1_94">
<rect width="20.5323" height="7.98023" fill="white" transform="translate(0.989624 0.785995)"/>
</clipPath>
<clipPath id="clip2_1_94">
<rect width="20.5323" height="7.98023" fill="white" transform="translate(0.989624 18.5807)"/>
</clipPath>
<clipPath id="clip3_1_94">
<rect width="20.5323" height="7.98023" fill="white" transform="translate(0.989624 9.68332)"/>
</clipPath>
</defs>
</svg>
