<svg width="22" height="25" viewBox="0 0 22 25" fill="none" xmlns="http://www.w3.org/2000/svg">
<path fill-rule="evenodd" clip-rule="evenodd" d="M1.00283 6.18746C0.783822 6.70761 0.674316 7.22776 0.674316 7.78898V20.1084C0.674316 20.6696 0.783822 21.2034 1.00283 21.7099C1.20816 22.2027 1.49561 22.627 1.87888 23.0103C2.26215 23.3935 2.68648 23.681 3.17926 23.8863C3.69941 24.1053 4.21956 24.2148 4.78078 24.2148H17.1002C17.6614 24.2148 18.1952 24.1053 18.7017 23.8863C19.1945 23.681 19.6188 23.3935 20.0021 23.0103C20.3853 22.627 20.6728 22.2027 20.8781 21.7099C21.0971 21.2034 21.2066 20.6696 21.2066 20.1084V7.78898C21.2066 7.22776 21.0971 6.70761 20.8781 6.18746C20.6728 5.69468 20.3853 5.27035 20.0021 4.88708C19.6188 4.50381 19.1945 4.21635 18.7017 4.01103C18.1952 3.79202 17.6614 3.68251 17.1002 3.68251H15.7314V0.94487H12.9937V3.68251H8.88725V0.94487H6.1496V3.68251H4.78078C4.21956 3.68251 3.69941 3.79202 3.17926 4.01103C2.68648 4.21635 2.26215 4.50381 1.87888 4.88708C1.49561 5.27035 1.20816 5.69468 1.00283 6.18746ZM3.80892 6.81711C3.54884 7.09088 3.41196 7.41939 3.41196 7.78898V11.8954H18.469V7.78898C18.469 7.41939 18.3321 7.09088 18.072 6.81711C17.7983 6.55704 17.4698 6.42016 17.1002 6.42016H15.7313V9.1578H12.9937V6.42016H8.88724V9.1578H6.1496V6.42016H4.78078C4.4112 6.42016 4.08268 6.55704 3.80892 6.81711ZM3.41196 20.1084V14.6331H18.469V20.1084C18.469 20.478 18.3321 20.8065 18.072 21.0802C17.7983 21.3403 17.4698 21.4772 17.1002 21.4772H4.78078C4.4112 21.4772 4.08268 21.3403 3.80892 21.0802C3.54884 20.8065 3.41196 20.478 3.41196 20.1084Z" fill="#A6A6A6"/>
</svg>
