<svg width="162" height="52" viewBox="0 0 162 52" fill="none" xmlns="http://www.w3.org/2000/svg">
<g clip-path="url(#clip0_1_114)">
<path fill-rule="evenodd" clip-rule="evenodd" d="M0.989624 14.6066C0.989624 7.04681 7.11805 0.918381 14.6778 0.918381H147.453C155.013 0.918381 161.142 7.0468 161.142 14.6066V37.8766C161.142 45.4363 155.013 51.5648 147.454 51.5648H14.6779C7.11807 51.5648 0.989624 45.4364 0.989624 37.8766V14.6066Z" fill="#930FFC"/>
<path d="M31.8428 19.5829L36.7049 31.6066H34.1753L33.124 28.8635H28.4427L27.4243 31.6066H25.0425L29.7567 19.5829H31.8428ZM32.352 26.8267L30.7423 22.6053L29.1818 26.8267H32.352ZM43.5706 19.1066H45.8538V31.6066H43.8499C43.7951 30.9715 43.7513 30.5444 43.7185 30.3254C43.4228 30.8182 43.0341 31.1905 42.5522 31.4424C42.0814 31.6833 41.5667 31.8037 41.0082 31.8037C40.3074 31.8037 39.6668 31.6285 39.0864 31.2781C38.506 30.9277 38.0406 30.4185 37.6902 29.7505C37.3398 29.0716 37.1645 28.2722 37.1645 27.3523C37.1645 26.4215 37.3398 25.6221 37.6902 24.9542C38.0406 24.2752 38.506 23.7605 39.0864 23.4101C39.6668 23.0597 40.3074 22.8845 41.0082 22.8845C41.5229 22.8845 41.9992 22.9885 42.4372 23.1966C42.8862 23.4047 43.264 23.7222 43.5706 24.1493V19.1066ZM41.5338 29.8491C42.1033 29.8491 42.5851 29.641 42.9793 29.2249C43.3735 28.8088 43.5706 28.1846 43.5706 27.3523C43.5706 26.531 43.3735 25.9233 42.9793 25.5291C42.5851 25.1239 42.1033 24.9213 41.5338 24.9213C40.9315 24.9213 40.4442 25.1348 40.0719 25.5619C39.7106 25.989 39.5299 26.5858 39.5299 27.3523C39.5299 28.1189 39.7106 28.7266 40.0719 29.1756C40.4442 29.6246 40.9315 29.8491 41.5338 29.8491ZM53.901 19.1066H56.1842V31.6066H54.1802C54.1254 30.9715 54.0816 30.5444 54.0488 30.3254C53.7531 30.8182 53.3644 31.1905 52.8826 31.4424C52.4117 31.6833 51.897 31.8037 51.3385 31.8037C50.6377 31.8037 49.9971 31.6285 49.4167 31.2781C48.8363 30.9277 48.3709 30.4185 48.0205 29.7505C47.6701 29.0716 47.4949 28.2722 47.4949 27.3523C47.4949 26.4215 47.6701 25.6221 48.0205 24.9542C48.3709 24.2752 48.8363 23.7605 49.4167 23.4101C49.9971 23.0597 50.6377 22.8845 51.3385 22.8845C51.8532 22.8845 52.3295 22.9885 52.7676 23.1966C53.2165 23.4047 53.5943 23.7222 53.901 24.1493V19.1066ZM51.8642 29.8491C52.4336 29.8491 52.9154 29.641 53.3096 29.2249C53.7038 28.8088 53.901 28.1846 53.901 27.3523C53.901 26.531 53.7038 25.9233 53.3096 25.5291C52.9154 25.1239 52.4336 24.9213 51.8642 24.9213C51.2619 24.9213 50.7746 25.1348 50.4022 25.5619C50.0409 25.989 49.8602 26.5858 49.8602 27.3523C49.8602 28.1189 50.0409 28.7266 50.4022 29.1756C50.7746 29.6246 51.2619 29.8491 51.8642 29.8491ZM67.2624 22.8845C67.5909 22.8845 67.8975 22.9338 68.1822 23.0323C68.4669 23.1309 68.6859 23.2568 68.8392 23.4101L67.9523 25.1677C67.6675 24.9706 67.3445 24.872 66.9831 24.872C66.3918 24.872 65.9154 25.1184 65.5541 25.6112C65.2037 26.104 65.0284 26.7829 65.0284 27.648V31.6066H62.7453V23.098H64.7492C64.804 23.7551 64.8532 24.204 64.897 24.445C65.1489 23.9303 65.4774 23.5415 65.8826 23.2787C66.2878 23.0159 66.7477 22.8845 67.2624 22.8845ZM73.0198 22.8845C73.7753 22.8845 74.4433 23.0542 75.0237 23.3937C75.615 23.7222 76.0695 24.1931 76.3871 24.8063C76.7156 25.4086 76.8798 26.104 76.8798 26.8924C76.8798 27.2428 76.847 27.5987 76.7813 27.9601H71.1308C71.2293 28.5952 71.4593 29.077 71.8207 29.4056C72.182 29.7231 72.631 29.8819 73.1676 29.8819C73.5509 29.8819 73.8903 29.7998 74.186 29.6355C74.4926 29.4603 74.728 29.203 74.8923 28.8635L76.5677 29.8491C76.3378 30.4732 75.8943 30.9551 75.2372 31.2945C74.5912 31.634 73.8684 31.8037 73.069 31.8037C72.3025 31.8037 71.5907 31.634 70.9337 31.2945C70.2766 30.9551 69.7455 30.4459 69.3404 29.7669C68.9461 29.088 68.749 28.2722 68.749 27.3195C68.749 26.3777 68.9461 25.5729 69.3404 24.9049C69.7455 24.2369 70.2712 23.7332 70.9172 23.3937C71.5633 23.0542 72.2642 22.8845 73.0198 22.8845ZM72.954 24.7406C72.5051 24.7406 72.1218 24.883 71.8042 25.1677C71.4867 25.4524 71.2731 25.8521 71.1636 26.3668H74.5474C74.5036 25.8412 74.3338 25.4415 74.0382 25.1677C73.7534 24.883 73.3921 24.7406 72.954 24.7406ZM84.837 29.077C84.837 29.9202 84.5085 30.5882 83.8515 31.081C83.2054 31.5628 82.3622 31.8037 81.3219 31.8037C80.4239 31.8037 79.6464 31.6121 78.9894 31.2288C78.3433 30.8456 77.9053 30.3145 77.6753 29.6355L79.3343 28.6664C79.4986 29.0716 79.7559 29.3891 80.1064 29.6191C80.4568 29.8381 80.8674 29.9476 81.3383 29.9476C81.6887 29.9476 81.968 29.8819 82.176 29.7505C82.3841 29.6191 82.4881 29.4329 82.4881 29.192C82.4881 28.9183 82.3512 28.7102 82.0775 28.5678C81.8037 28.4145 81.3766 28.2558 80.7962 28.0915C80.2159 27.9163 79.7395 27.7466 79.3672 27.5823C79.0058 27.418 78.6883 27.1826 78.4145 26.876C78.1517 26.5584 78.0203 26.1478 78.0203 25.644C78.0203 25.0746 78.1736 24.5818 78.4802 24.1657C78.7978 23.7496 79.2194 23.432 79.745 23.213C80.2706 22.994 80.8455 22.8845 81.4697 22.8845C82.3238 22.8845 83.0466 23.0707 83.6379 23.443C84.2292 23.8043 84.6016 24.2862 84.7549 24.8885L83.0959 25.8247C82.7673 25.1129 82.2143 24.757 81.4368 24.757C81.1083 24.757 80.8455 24.8227 80.6484 24.9542C80.4513 25.0746 80.3527 25.2498 80.3527 25.4798C80.3527 25.7426 80.4841 25.9452 80.747 26.0875C81.0098 26.2189 81.4204 26.3613 81.9789 26.5146C82.5702 26.6789 83.0575 26.8431 83.4408 27.0074C83.8241 27.1716 84.1526 27.4235 84.4264 27.763C84.7001 28.0915 84.837 28.5295 84.837 29.077ZM85.7203 27.3523C85.7203 26.4653 85.9174 25.6824 86.3116 25.0034C86.7168 24.3245 87.2534 23.8043 87.9213 23.443C88.5893 23.0707 89.3121 22.8845 90.0896 22.8845C90.8561 22.8845 91.5679 23.0707 92.2249 23.443C92.8929 23.8043 93.424 24.3245 93.8182 25.0034C94.2234 25.6824 94.426 26.4653 94.426 27.3523C94.426 28.2393 94.2234 29.0223 93.8182 29.7012C93.424 30.3802 92.8929 30.9003 92.2249 31.2617C91.5679 31.6231 90.8561 31.8037 90.0896 31.8037C89.3121 31.8037 88.5893 31.6231 87.9213 31.2617C87.2534 30.9003 86.7168 30.3802 86.3116 29.7012C85.9174 29.0223 85.7203 28.2393 85.7203 27.3523ZM88.0856 27.3523C88.0856 28.1079 88.2718 28.7102 88.6441 29.1592C89.0273 29.5972 89.5037 29.8162 90.0731 29.8162C90.6426 29.8162 91.1134 29.5972 91.4858 29.1592C91.8581 28.7102 92.0442 28.1079 92.0442 27.3523C92.0442 26.5967 91.8581 25.9945 91.4858 25.5455C91.1134 25.0965 90.6426 24.872 90.0731 24.872C89.5037 24.872 89.0273 25.0965 88.6441 25.5455C88.2718 25.9945 88.0856 26.5967 88.0856 27.3523ZM101.581 23.098H103.864V31.6066H101.844C101.8 30.9496 101.756 30.5061 101.712 30.2761C101.428 30.7908 101.055 31.1741 100.595 31.4259C100.135 31.6778 99.6098 31.8037 99.0184 31.8037C98.0657 31.8037 97.3156 31.4971 96.7681 30.8839C96.2206 30.2707 95.9468 29.3727 95.9468 28.1901V23.098H98.23V27.4345C98.23 29.0004 98.7337 29.7834 99.7412 29.7834C100.289 29.7834 100.732 29.5698 101.072 29.1427C101.411 28.7157 101.581 28.1189 101.581 27.3523V23.098ZM110.509 22.8845C110.837 22.8845 111.144 22.9338 111.428 23.0323C111.713 23.1309 111.932 23.2568 112.085 23.4101L111.198 25.1677C110.914 24.9706 110.591 24.872 110.229 24.872C109.638 24.872 109.162 25.1184 108.8 25.6112C108.45 26.104 108.275 26.7829 108.275 27.648V31.6066H105.991V23.098H107.995C108.05 23.7551 108.099 24.204 108.143 24.445C108.395 23.9303 108.724 23.5415 109.129 23.2787C109.534 23.0159 109.994 22.8845 110.509 22.8845ZM116.315 29.8162C116.972 29.8162 117.498 29.4932 117.892 28.8471L119.633 29.8655C119.359 30.5006 118.927 30.9824 118.336 31.311C117.744 31.6395 117.071 31.8037 116.315 31.8037C115.56 31.8037 114.853 31.634 114.196 31.2945C113.539 30.9441 113.008 30.4349 112.603 29.7669C112.198 29.088 111.995 28.2831 111.995 27.3523C111.995 26.4106 112.198 25.6057 112.603 24.9377C113.008 24.2588 113.539 23.7496 114.196 23.4101C114.853 23.0597 115.56 22.8845 116.315 22.8845C117.071 22.8845 117.744 23.0488 118.336 23.3773C118.927 23.7058 119.359 24.1876 119.633 24.8227L117.892 25.8412C117.509 25.206 116.983 24.8885 116.315 24.8885C115.724 24.8885 115.248 25.1129 114.886 25.5619C114.536 25.9999 114.361 26.5967 114.361 27.3523C114.361 28.097 114.541 28.6938 114.903 29.1427C115.264 29.5917 115.735 29.8162 116.315 29.8162ZM124.463 22.8845C125.218 22.8845 125.886 23.0542 126.467 23.3937C127.058 23.7222 127.513 24.1931 127.83 24.8063C128.159 25.4086 128.323 26.104 128.323 26.8924C128.323 27.2428 128.29 27.5987 128.224 27.9601H122.574C122.672 28.5952 122.902 29.077 123.264 29.4056C123.625 29.7231 124.074 29.8819 124.611 29.8819C124.994 29.8819 125.333 29.7998 125.629 29.6355C125.936 29.4603 126.171 29.203 126.335 28.8635L128.011 29.8491C127.781 30.4732 127.337 30.9551 126.68 31.2945C126.034 31.634 125.312 31.8037 124.512 31.8037C123.746 31.8037 123.034 31.634 122.377 31.2945C121.72 30.9551 121.189 30.4459 120.783 29.7669C120.389 29.088 120.192 28.2722 120.192 27.3195C120.192 26.3777 120.389 25.5729 120.783 24.9049C121.189 24.2369 121.714 23.7332 122.36 23.3937C123.006 23.0542 123.707 22.8845 124.463 22.8845ZM124.397 24.7406C123.948 24.7406 123.565 24.883 123.247 25.1677C122.93 25.4524 122.716 25.8521 122.607 26.3668H125.99C125.947 25.8412 125.777 25.4415 125.481 25.1677C125.197 24.883 124.835 24.7406 124.397 24.7406ZM136.28 29.077C136.28 29.9202 135.952 30.5882 135.295 31.081C134.648 31.5628 133.805 31.8037 132.765 31.8037C131.867 31.8037 131.09 31.6121 130.432 31.2288C129.786 30.8456 129.348 30.3145 129.118 29.6355L130.777 28.6664C130.942 29.0716 131.199 29.3891 131.549 29.6191C131.9 29.8381 132.311 29.9476 132.781 29.9476C133.132 29.9476 133.411 29.8819 133.619 29.7505C133.827 29.6191 133.931 29.4329 133.931 29.192C133.931 28.9183 133.794 28.7102 133.521 28.5678C133.247 28.4145 132.82 28.2558 132.239 28.0915C131.659 27.9163 131.183 27.7466 130.81 27.5823C130.449 27.418 130.131 27.1826 129.858 26.876C129.595 26.5584 129.463 26.1478 129.463 25.644C129.463 25.0746 129.617 24.5818 129.923 24.1657C130.241 23.7496 130.662 23.432 131.188 23.213C131.714 22.994 132.289 22.8845 132.913 22.8845C133.767 22.8845 134.49 23.0707 135.081 23.443C135.672 23.8043 136.045 24.2862 136.198 24.8885L134.539 25.8247C134.21 25.1129 133.657 24.757 132.88 24.757C132.551 24.757 132.289 24.8227 132.091 24.9542C131.894 25.0746 131.796 25.2498 131.796 25.4798C131.796 25.7426 131.927 25.9452 132.19 26.0875C132.453 26.2189 132.864 26.3613 133.422 26.5146C134.013 26.6789 134.501 26.8431 134.884 27.0074C135.267 27.1716 135.596 27.4235 135.869 27.763C136.143 28.0915 136.28 28.5295 136.28 29.077Z" fill="white"/>
</g>
<defs>
<clipPath id="clip0_1_114">
<rect width="160.152" height="50.6464" fill="white" transform="translate(0.989929 0.918335)"/>
</clipPath>
</defs>
</svg>
