<svg width="27" height="22" viewBox="0 0 27 22" fill="none" xmlns="http://www.w3.org/2000/svg">
<path d="M19.4886 16.5548L19.8686 15.9856L19.275 15.5893L18.9039 16.1989L19.4886 16.5548ZM24.1836 19.6894L23.8036 20.2586L24.3742 20.6396L24.7538 20.068L24.1836 19.6894ZM25.3197 17.9783L25.8899 18.3569L26.2673 17.7886L25.7001 17.4094L25.3197 17.9783ZM20.4057 14.6932L19.7622 14.4599L19.5795 14.9641L20.0253 15.2621L20.4057 14.6932ZM20.214 7.43842L20.8446 7.1722L20.8439 7.17057L20.214 7.43842ZM14.9304 2.15477L15.1982 1.52495L15.1966 1.52426L14.9304 2.15477ZM7.21024 2.15477L6.94402 1.52426L6.94239 1.52495L7.21024 2.15477ZM1.92659 7.43842L1.29677 7.17057L1.29608 7.1722L1.92659 7.43842ZM1.92659 15.1586L1.29608 15.4248L1.29677 15.4264L1.92659 15.1586ZM7.21024 20.4422L6.94239 21.072L6.94402 21.0727L7.21024 20.4422ZM14.9304 20.4422L15.1966 21.0727L15.1982 21.072L14.9304 20.4422ZM19.1085 17.124L23.8036 20.2586L24.5637 19.1202L19.8686 15.9856L19.1085 17.124ZM24.7538 20.068L25.8899 18.3569L24.7496 17.5998L23.6135 19.3108L24.7538 20.068ZM25.7001 17.4094L20.7861 14.1242L20.0253 15.2621L24.9394 18.5473L25.7001 17.4094ZM21.0491 14.9264C21.4741 13.7541 21.6787 12.5526 21.6787 11.2985H20.3099C20.3099 12.3988 20.1312 13.4421 19.7622 14.4599L21.0491 14.9264ZM21.6787 11.2985C21.6787 9.8659 21.4004 8.48866 20.8446 7.1722L19.5835 7.70464C20.068 8.85206 20.3099 10.0482 20.3099 11.2985H21.6787ZM20.8439 7.17057C20.3046 5.90266 19.5582 4.77439 18.5763 3.79249L17.6084 4.76039C18.4607 5.61272 19.1105 6.59243 19.5842 7.70627L20.8439 7.17057ZM18.5763 3.79249C17.5944 2.81059 16.4662 2.06418 15.1982 1.52495L14.6625 2.78459C15.7764 3.25829 16.7561 3.90807 17.6084 4.76039L18.5763 3.79249ZM15.1966 1.52426C13.8802 0.96842 12.5029 0.690132 11.0703 0.690132V2.05895C12.3206 2.05895 13.5168 2.30082 14.6642 2.78528L15.1966 1.52426ZM11.0703 0.690132C9.63772 0.690132 8.26048 0.96842 6.94402 1.52426L7.47646 2.78528C8.62388 2.30082 9.82002 2.05895 11.0703 2.05895V0.690132ZM6.94239 1.52495C5.67448 2.06418 4.54621 2.81059 3.56431 3.79249L4.53221 4.76039C5.38454 3.90807 6.36425 3.25829 7.47809 2.78459L6.94239 1.52495ZM3.56431 3.79249C2.58241 4.77439 1.836 5.90266 1.29677 7.17057L2.55641 7.70627C3.03011 6.59243 3.67989 5.61272 4.53221 4.76039L3.56431 3.79249ZM1.29608 7.1722C0.74024 8.48866 0.461952 9.8659 0.461952 11.2985H1.83077C1.83077 10.0482 2.07264 8.85206 2.5571 7.70464L1.29608 7.1722ZM0.461952 11.2985C0.461952 12.7311 0.74024 14.1083 1.29608 15.4248L2.5571 14.8924C2.07264 13.7449 1.83077 12.5488 1.83077 11.2985H0.461952ZM1.29677 15.4264C1.836 16.6943 2.58241 17.8226 3.56431 18.8045L4.53221 17.8366C3.67989 16.9843 3.03011 16.0046 2.55641 14.8907L1.29677 15.4264ZM3.56431 18.8045C4.54621 19.7864 5.67448 20.5328 6.94239 21.072L7.47809 19.8124C6.36425 19.3387 5.38454 18.6889 4.53221 17.8366L3.56431 18.8045ZM6.94402 21.0727C8.26048 21.6286 9.63772 21.9069 11.0703 21.9069V20.538C9.82002 20.538 8.62388 20.2962 7.47646 19.8117L6.94402 21.0727ZM11.0703 21.9069C12.5029 21.9069 13.8802 21.6286 15.1966 21.0727L14.6642 19.8117C13.5168 20.2962 12.3206 20.538 11.0703 20.538V21.9069ZM15.1982 21.072C16.4662 20.5328 17.5944 19.7864 18.5763 18.8045L17.6084 17.8366C16.7561 18.6889 15.7764 19.3387 14.6625 19.8124L15.1982 21.072ZM18.5763 18.8045C19.1604 18.2204 19.6602 17.5891 20.0732 16.9106L18.9039 16.1989C18.5504 16.7797 18.1194 17.3257 17.6084 17.8366L18.5763 18.8045Z" fill="#930FFC"/>
</svg>
